<svg width="400" height="800" viewBox="0 0 400 800" fill="none" xmlns="http://www.w3.org/2000/svg">
<rect x="400" y="3.05176e-05" width="800" height="400" transform="rotate(90 400 3.05176e-05)" fill="#D9D9D9"/>
<path d="M118.033 354.4C116.066 354.4 114.5 353.7 113.333 352.3C112.2 350.867 111.633 349.233 111.633 347.4C111.633 345.567 112.25 343.933 113.483 342.5C114.75 341.033 116.25 340.3 117.983 340.3C118.716 340.3 119.316 340.483 119.783 340.85C120.283 341.183 120.533 341.683 120.533 342.35C120.533 343.583 119.733 344.2 118.133 344.2C117.4 344.2 116.766 344.517 116.233 345.15C115.7 345.75 115.433 346.517 115.433 347.45C115.433 348.35 115.683 349.1 116.183 349.7C116.683 350.267 117.383 350.55 118.283 350.55C121.383 350.55 122.933 345.75 122.933 336.15C122.933 333.517 122.666 330.067 122.133 325.8C121.6 321.533 121.333 319.05 121.333 318.35C121.333 317.617 121.566 317.033 122.033 316.6C122.5 316.167 123.05 315.95 123.683 315.95C124.616 315.95 125.366 316.533 125.933 317.7C127.733 321.2 130.3 325.883 133.633 331.75C136.966 337.617 139.85 342.483 142.283 346.35C142.15 346.35 141.983 344.033 141.783 339.4C141.616 334.733 141.533 331.667 141.533 330.2C141.533 326.5 141.9 323.35 142.633 320.75C143.066 319.25 143.766 318.083 144.733 317.25C145.733 316.383 146.866 315.95 148.133 315.95C149.433 315.95 150.533 316.3 151.433 317C152.333 317.667 152.783 318.45 152.783 319.35C152.783 320.25 152.4 320.7 151.633 320.7C151.4 320.7 150.916 320.55 150.183 320.25C149.45 319.95 148.8 319.8 148.233 319.8C146.133 319.8 145.083 324.617 145.083 334.25C145.083 336.517 145.266 339.983 145.633 344.65C146 349.317 146.183 351.917 146.183 352.45C146.183 352.983 145.95 353.467 145.483 353.9C145.05 354.333 144.533 354.55 143.933 354.55C143.033 354.55 142.25 353.967 141.583 352.8C139.916 349.833 138.016 346.517 135.883 342.85L129.533 331.5C127.7 328.1 126.433 325.867 125.733 324.8C126.2 329.2 126.433 333.383 126.433 337.35C126.433 348.717 123.633 354.4 118.033 354.4ZM176.939 341.9C176.939 344.333 177.106 346.367 177.439 348C177.806 349.6 178.256 350.5 178.789 350.7C178.989 350.8 179.222 350.867 179.489 350.9C179.789 350.933 179.989 350.983 180.089 351.05C180.222 351.117 180.289 351.25 180.289 351.45C180.289 352.383 180.039 353.133 179.539 353.7C179.039 354.233 178.306 354.5 177.339 354.5C176.406 354.5 175.672 353.9 175.139 352.7C174.606 351.467 174.339 349.867 174.339 347.9C173.439 349.833 172.189 351.417 170.589 352.65C168.989 353.883 167.172 354.5 165.139 354.5C163.139 354.5 161.422 353.833 159.989 352.5C157.322 350.033 155.989 346.55 155.989 342.05C155.989 338.417 157.039 335.25 159.139 332.55C161.239 329.85 163.939 328.5 167.239 328.5C169.739 328.5 171.906 329.35 173.739 331.05C173.739 329.35 174.372 328.5 175.639 328.5C177.172 328.5 177.939 329.65 177.939 331.95C177.939 334.217 177.606 337.533 176.939 341.9ZM174.039 342.35L173.789 334.65C171.822 332.717 169.739 331.75 167.539 331.75C165.339 331.75 163.456 332.733 161.889 334.7C160.322 336.667 159.539 339.05 159.539 341.85C159.539 344.617 160.056 346.883 161.089 348.65C162.122 350.383 163.556 351.25 165.389 351.25C167.222 351.25 168.906 350.433 170.439 348.8C172.006 347.167 173.206 345.017 174.039 342.35ZM189.603 342.55L189.753 351.95C189.753 353.65 189.12 354.5 187.853 354.5C186.32 354.5 185.553 353.367 185.553 351.1C185.553 348.8 185.887 345.467 186.553 341.1C186.553 339.7 186.403 337.75 186.103 335.25C185.837 332.717 185.703 331.183 185.703 330.65C185.703 330.117 185.887 329.633 186.253 329.2C186.62 328.733 187.087 328.5 187.653 328.5C188.22 328.5 188.687 328.733 189.053 329.2C189.42 329.633 189.603 330.083 189.603 330.55C189.603 331.017 189.587 331.767 189.553 332.8C189.553 333.833 189.553 334.55 189.553 334.95C190.187 333.283 191.22 331.783 192.653 330.45C194.12 329.15 195.57 328.5 197.003 328.5C198.47 328.5 199.62 328.8 200.453 329.4C201.32 329.967 201.753 330.617 201.753 331.35C201.753 332.083 201.57 332.65 201.203 333.05C200.837 333.45 200.353 333.65 199.753 333.65C199.187 333.65 198.553 333.35 197.853 332.75C197.22 332.117 196.687 331.8 196.253 331.8C195.153 331.8 193.87 333 192.403 335.4C190.937 337.767 190.003 340.15 189.603 342.55ZM210.013 342.55L210.163 351.95C210.163 353.65 209.53 354.5 208.263 354.5C206.73 354.5 205.963 353.367 205.963 351.1C205.963 348.8 206.297 345.467 206.963 341.1C206.963 339.7 206.813 337.75 206.513 335.25C206.247 332.717 206.113 331.183 206.113 330.65C206.113 330.117 206.297 329.633 206.663 329.2C207.03 328.733 207.497 328.5 208.063 328.5C208.63 328.5 209.097 328.733 209.463 329.2C209.83 329.633 210.013 330.083 210.013 330.55C210.013 331.017 209.997 331.767 209.963 332.8C209.963 333.833 209.963 334.55 209.963 334.95C210.597 333.283 211.63 331.783 213.063 330.45C214.53 329.15 215.98 328.5 217.413 328.5C218.88 328.5 220.03 328.8 220.863 329.4C221.73 329.967 222.163 330.617 222.163 331.35C222.163 332.083 221.98 332.65 221.613 333.05C221.247 333.45 220.763 333.65 220.163 333.65C219.597 333.65 218.963 333.35 218.263 332.75C217.63 332.117 217.097 331.8 216.663 331.8C215.563 331.8 214.28 333 212.813 335.4C211.347 337.767 210.413 340.15 210.013 342.55ZM228.384 341.55C228.384 344.317 229.151 346.667 230.684 348.6C232.218 350.533 234.134 351.5 236.434 351.5C238.768 351.5 240.734 350.533 242.334 348.6C243.968 346.633 244.784 344.267 244.784 341.5C244.784 338.733 244.001 336.383 242.434 334.45C240.901 332.483 238.984 331.5 236.684 331.5C234.418 331.5 232.451 332.483 230.784 334.45C229.184 336.417 228.384 338.783 228.384 341.55ZM228.134 350.95C225.934 348.383 224.834 345.25 224.834 341.55C224.834 337.85 225.951 334.717 228.184 332.15C230.418 329.55 233.234 328.25 236.634 328.25C240.034 328.25 242.834 329.533 245.034 332.1C247.234 334.633 248.334 337.767 248.334 341.5C248.334 345.2 247.201 348.333 244.934 350.9C242.701 353.467 239.884 354.75 236.484 354.75C233.118 354.75 230.334 353.483 228.134 350.95ZM262.06 350C262.394 350 263.477 346.867 265.31 340.6C267.144 334.3 268.177 330.867 268.41 330.3C268.877 329.1 269.61 328.5 270.61 328.5C271.644 328.5 272.36 329.083 272.76 330.25L275.66 340.6C277.527 346.867 278.594 350 278.86 350C279.227 350 280.327 346.883 282.16 340.65C282.594 339.217 283.144 337.267 283.81 334.8L285.01 330.45C285.41 329.15 286.027 328.5 286.86 328.5C287.36 328.5 287.777 328.65 288.11 328.95C288.477 329.25 288.66 329.65 288.66 330.15C288.66 330.65 288.36 331.833 287.76 333.7C287.16 335.567 286.727 336.85 286.46 337.55C286.227 338.25 285.46 340.6 284.16 344.6C282.894 348.6 281.994 351.25 281.46 352.55C280.96 353.85 280.044 354.5 278.71 354.5C277.377 354.5 276.41 353.633 275.81 351.9C274.61 348.433 273.46 344.783 272.36 340.95C271.26 337.083 270.577 335.15 270.31 335.15C270.077 335.15 269.76 335.817 269.36 337.15L268.06 341.75C266.327 347.85 265.127 351.517 264.46 352.75C263.894 353.917 262.977 354.5 261.71 354.5C260.444 354.5 259.494 353.583 258.86 351.75C258.794 351.55 258.694 351.267 258.56 350.9C258.427 350.533 258.244 350.017 258.01 349.35C257.81 348.683 257.594 348.017 257.36 347.35C257.16 346.683 256.594 344.95 255.66 342.15L254.31 338.2C254.01 337.3 253.677 336.333 253.31 335.3C252.344 332.667 251.86 331.05 251.86 330.45C251.86 329.817 252.027 329.333 252.36 329C252.727 328.667 253.16 328.5 253.66 328.5C254.627 328.5 255.294 329.083 255.66 330.25C255.694 330.283 256.127 331.75 256.96 334.65L258.56 339.95C258.694 340.317 258.877 340.85 259.11 341.55C259.91 344.183 260.56 346.25 261.06 347.75C261.56 349.25 261.894 350 262.06 350ZM97.7287 409.8C97.7287 412.033 96.7954 413.883 94.9287 415.35C93.0954 416.783 90.8954 417.5 88.3287 417.5C85.762 417.5 83.512 416.917 81.5787 415.75C79.6787 414.55 78.7287 413.367 78.7287 412.2C78.7287 411.433 79.0454 410.917 79.6787 410.65C80.312 410.383 80.7954 410.417 81.1287 410.75C81.1954 410.783 81.862 411.433 83.1287 412.7C83.4954 413.033 84.1787 413.383 85.1787 413.75C86.1787 414.083 87.062 414.25 87.8287 414.25C89.6954 414.25 91.212 413.867 92.3787 413.1C93.5454 412.333 94.1287 411.25 94.1287 409.85C94.1287 408.083 92.462 406.633 89.1287 405.5C85.4287 404.233 83.062 403.15 82.0287 402.25C81.5287 401.817 81.062 401.25 80.6287 400.55C80.2287 399.817 80.0287 399.05 80.0287 398.25C80.0287 396.45 80.8454 394.883 82.4787 393.55C84.1454 392.183 86.1287 391.5 88.4287 391.5C90.7287 391.5 92.5954 391.9 94.0287 392.7C95.462 393.467 96.1787 394.333 96.1787 395.3C96.1787 396.4 95.5954 396.95 94.4287 396.95C93.962 396.95 93.462 396.767 92.9287 396.4C91.3287 395.3 89.7787 394.75 88.2787 394.75C86.812 394.75 85.6954 395.083 84.9287 395.75C84.0287 396.383 83.5787 397.133 83.5787 398C83.5787 398.833 84.012 399.517 84.8787 400.05C85.7454 400.583 87.162 401.25 89.1287 402.05C91.0954 402.817 92.2954 403.3 92.7287 403.5C94.1954 404.133 95.3954 405 96.3287 406.1C97.262 407.2 97.7287 408.433 97.7287 409.8ZM121.983 411.85C122.816 411.85 123.233 412.3 123.233 413.2C123.233 414.067 122.266 415.05 120.333 416.15C118.366 417.217 116.333 417.75 114.233 417.75C110.766 417.75 107.849 416.467 105.483 413.9C103.149 411.333 101.983 408.2 101.983 404.5C101.983 400.8 103.149 397.667 105.483 395.1C107.816 392.533 110.916 391.25 114.783 391.25C116.849 391.25 118.699 391.733 120.333 392.7C121.966 393.633 122.783 394.567 122.783 395.5C122.783 396.433 122.449 397.033 121.783 397.3C121.583 397.367 121.299 397.4 120.933 397.4C120.599 397.4 120.166 397.167 119.633 396.7C117.866 395.233 116.099 394.5 114.333 394.5C112.033 394.5 110.016 395.467 108.283 397.4C106.583 399.333 105.733 401.7 105.733 404.5C105.733 407.267 106.599 409.633 108.333 411.6C110.099 413.533 112.249 414.5 114.783 414.5C116.783 414.5 118.699 413.833 120.533 412.5C121.166 412.067 121.649 411.85 121.983 411.85ZM132.572 405.55L132.722 414.95C132.722 416.65 132.089 417.5 130.822 417.5C129.289 417.5 128.522 416.367 128.522 414.1C128.522 411.8 128.855 408.467 129.522 404.1C129.522 402.7 129.372 400.75 129.072 398.25C128.805 395.717 128.672 394.183 128.672 393.65C128.672 393.117 128.855 392.633 129.222 392.2C129.589 391.733 130.055 391.5 130.622 391.5C131.189 391.5 131.655 391.733 132.022 392.2C132.389 392.633 132.572 393.083 132.572 393.55C132.572 394.017 132.555 394.767 132.522 395.8C132.522 396.833 132.522 397.55 132.522 397.95C133.155 396.283 134.189 394.783 135.622 393.45C137.089 392.15 138.539 391.5 139.972 391.5C141.439 391.5 142.589 391.8 143.422 392.4C144.289 392.967 144.722 393.617 144.722 394.35C144.722 395.083 144.539 395.65 144.172 396.05C143.805 396.45 143.322 396.65 142.722 396.65C142.155 396.65 141.522 396.35 140.822 395.75C140.189 395.117 139.655 394.8 139.222 394.8C138.122 394.8 136.839 396 135.372 398.4C133.905 400.767 132.972 403.15 132.572 405.55ZM159.869 394.5C157.669 394.5 155.819 395.333 154.319 397C152.852 398.633 151.885 400.55 151.419 402.75C153.219 403.283 155.235 403.55 157.469 403.55C159.735 403.55 161.552 403.167 162.919 402.4C164.285 401.633 164.969 400.583 164.969 399.25C164.969 397.917 164.502 396.8 163.569 395.9C162.669 394.967 161.435 394.5 159.869 394.5ZM157.719 406.7C155.985 406.7 153.869 406.45 151.369 405.95C151.569 408.317 152.435 410.333 153.969 412C155.535 413.667 157.352 414.5 159.419 414.5C161.485 414.5 163.185 414 164.519 413C165.852 411.967 166.719 411.45 167.119 411.45C167.552 411.45 167.885 411.583 168.119 411.85C168.385 412.083 168.519 412.383 168.519 412.75C168.519 413.683 167.552 414.75 165.619 415.95C163.719 417.15 161.652 417.75 159.419 417.75C155.952 417.75 153.185 416.533 151.119 414.1C149.085 411.633 148.002 408.7 147.869 405.3C146.102 404.733 145.219 403.867 145.219 402.7C145.219 401.933 145.502 401.433 146.069 401.2C146.269 401.133 146.519 401.1 146.819 401.1C147.152 401.1 147.602 401.25 148.169 401.55C148.935 398.517 150.319 396.05 152.319 394.15C154.352 392.217 156.719 391.25 159.419 391.25C162.152 391.25 164.352 392 166.019 393.5C167.685 395 168.519 396.967 168.519 399.4C168.519 401.8 167.485 403.617 165.419 404.85C163.352 406.083 160.785 406.7 157.719 406.7ZM186.822 394.5C184.622 394.5 182.772 395.333 181.272 397C179.805 398.633 178.838 400.55 178.372 402.75C180.172 403.283 182.188 403.55 184.422 403.55C186.688 403.55 188.505 403.167 189.872 402.4C191.238 401.633 191.922 400.583 191.922 399.25C191.922 397.917 191.455 396.8 190.522 395.9C189.622 394.967 188.388 394.5 186.822 394.5ZM184.672 406.7C182.938 406.7 180.822 406.45 178.322 405.95C178.522 408.317 179.388 410.333 180.922 412C182.488 413.667 184.305 414.5 186.372 414.5C188.438 414.5 190.138 414 191.472 413C192.805 411.967 193.672 411.45 194.072 411.45C194.505 411.45 194.838 411.583 195.072 411.85C195.338 412.083 195.472 412.383 195.472 412.75C195.472 413.683 194.505 414.75 192.572 415.95C190.672 417.15 188.605 417.75 186.372 417.75C182.905 417.75 180.138 416.533 178.072 414.1C176.038 411.633 174.955 408.7 174.822 405.3C173.055 404.733 172.172 403.867 172.172 402.7C172.172 401.933 172.455 401.433 173.022 401.2C173.222 401.133 173.472 401.1 173.772 401.1C174.105 401.1 174.555 401.25 175.122 401.55C175.888 398.517 177.272 396.05 179.272 394.15C181.305 392.217 183.672 391.25 186.372 391.25C189.105 391.25 191.305 392 192.972 393.5C194.638 395 195.472 396.967 195.472 399.4C195.472 401.8 194.438 403.617 192.372 404.85C190.305 406.083 187.738 406.7 184.672 406.7ZM222.725 401.25L222.475 409.1V411.25C222.541 412.617 222.875 413.433 223.475 413.7C223.708 413.767 223.975 413.833 224.275 413.9C224.575 413.933 224.775 413.983 224.875 414.05C225.008 414.117 225.075 414.25 225.075 414.45C225.075 415.317 224.791 416.05 224.225 416.65C223.691 417.217 223.058 417.5 222.325 417.5C221.091 417.5 220.225 417.017 219.725 416.05C219.225 415.083 218.975 413.6 218.975 411.6L219.175 402.4C219.175 400.1 218.675 398.267 217.675 396.9C216.708 395.5 215.375 394.8 213.675 394.8C211.975 394.8 210.325 395.75 208.725 397.65C207.158 399.517 206.041 401.667 205.375 404.1L205.525 414.95C205.525 416.65 204.891 417.5 203.625 417.5C202.091 417.5 201.325 416.367 201.325 414.1C201.325 411.8 201.658 408.467 202.325 404.1C202.325 402.7 202.175 400.733 201.875 398.2C201.608 395.667 201.475 394.133 201.475 393.6C201.475 393.067 201.658 392.583 202.025 392.15C202.391 391.717 202.858 391.5 203.425 391.5C203.991 391.5 204.458 391.717 204.825 392.15C205.191 392.583 205.375 393.05 205.375 393.55C205.375 394.05 205.358 394.8 205.325 395.8C205.325 396.8 205.325 397.483 205.325 397.85C207.758 393.617 210.758 391.5 214.325 391.5C216.991 391.5 219.058 392.467 220.525 394.4C221.991 396.3 222.725 398.583 222.725 401.25ZM247.68 409.8C247.68 412.033 246.747 413.883 244.88 415.35C243.047 416.783 240.847 417.5 238.28 417.5C235.713 417.5 233.463 416.917 231.53 415.75C229.63 414.55 228.68 413.367 228.68 412.2C228.68 411.433 228.997 410.917 229.63 410.65C230.263 410.383 230.747 410.417 231.08 410.75C231.147 410.783 231.813 411.433 233.08 412.7C233.447 413.033 234.13 413.383 235.13 413.75C236.13 414.083 237.013 414.25 237.78 414.25C239.647 414.25 241.163 413.867 242.33 413.1C243.497 412.333 244.08 411.25 244.08 409.85C244.08 408.083 242.413 406.633 239.08 405.5C235.38 404.233 233.013 403.15 231.98 402.25C231.48 401.817 231.013 401.25 230.58 400.55C230.18 399.817 229.98 399.05 229.98 398.25C229.98 396.45 230.797 394.883 232.43 393.55C234.097 392.183 236.08 391.5 238.38 391.5C240.68 391.5 242.547 391.9 243.98 392.7C245.413 393.467 246.13 394.333 246.13 395.3C246.13 396.4 245.547 396.95 244.38 396.95C243.913 396.95 243.413 396.767 242.88 396.4C241.28 395.3 239.73 394.75 238.23 394.75C236.763 394.75 235.647 395.083 234.88 395.75C233.98 396.383 233.53 397.133 233.53 398C233.53 398.833 233.963 399.517 234.83 400.05C235.697 400.583 237.113 401.25 239.08 402.05C241.047 402.817 242.247 403.3 242.68 403.5C244.147 404.133 245.347 405 246.28 406.1C247.213 407.2 247.68 408.433 247.68 409.8ZM274.334 401.25L274.084 409.1V411.25C274.15 412.617 274.484 413.433 275.084 413.7C275.317 413.767 275.584 413.833 275.884 413.9C276.184 413.933 276.384 413.983 276.484 414.05C276.617 414.117 276.684 414.25 276.684 414.45C276.684 415.317 276.4 416.05 275.834 416.65C275.3 417.217 274.667 417.5 273.934 417.5C272.7 417.5 271.834 417.017 271.334 416.05C270.834 415.083 270.584 413.6 270.584 411.6L270.784 402.4C270.784 400.1 270.284 398.267 269.284 396.9C268.317 395.5 266.984 394.8 265.284 394.8C263.584 394.8 261.934 395.75 260.334 397.65C258.767 399.517 257.65 401.667 256.984 404.1L257.134 414.95C257.134 416.65 256.5 417.5 255.234 417.5C253.7 417.5 252.934 416.367 252.934 414.1C252.934 411.8 253.267 408.467 253.934 404.1C253.934 401.833 253.784 397.567 253.484 391.3C253.184 385 253.034 381.6 253.034 381.1C253.034 380.6 253.2 380.117 253.534 379.65C253.9 379.183 254.267 378.95 254.634 378.95C255.034 378.95 255.4 379.033 255.734 379.2C256.534 379.567 256.934 380.217 256.934 381.15C256.934 381.283 256.934 381.4 256.934 381.5V397.85C259.367 393.617 262.367 391.5 265.934 391.5C268.634 391.5 270.7 392.467 272.134 394.4C273.6 396.3 274.334 398.583 274.334 401.25ZM284.341 404.55C284.341 407.317 285.108 409.667 286.641 411.6C288.175 413.533 290.091 414.5 292.391 414.5C294.725 414.5 296.691 413.533 298.291 411.6C299.925 409.633 300.741 407.267 300.741 404.5C300.741 401.733 299.958 399.383 298.391 397.45C296.858 395.483 294.941 394.5 292.641 394.5C290.375 394.5 288.408 395.483 286.741 397.45C285.141 399.417 284.341 401.783 284.341 404.55ZM284.091 413.95C281.891 411.383 280.791 408.25 280.791 404.55C280.791 400.85 281.908 397.717 284.141 395.15C286.375 392.55 289.191 391.25 292.591 391.25C295.991 391.25 298.791 392.533 300.991 395.1C303.191 397.633 304.291 400.767 304.291 404.5C304.291 408.2 303.158 411.333 300.891 413.9C298.658 416.467 295.841 417.75 292.441 417.75C289.075 417.75 286.291 416.483 284.091 413.95ZM319.526 395.15L315.376 395.05L315.276 406.9C315.276 409.967 315.392 411.967 315.626 412.9C315.859 413.8 316.526 414.25 317.626 414.25C318.159 414.25 318.792 414.083 319.526 413.75C320.259 413.383 320.709 413.2 320.876 413.2C321.576 413.2 321.926 413.55 321.926 414.25C321.926 414.95 321.309 415.667 320.076 416.4C318.842 417.133 317.626 417.5 316.426 417.5C313.526 417.5 312.076 415.367 312.076 411.1L312.026 395.05C310.926 395.15 310.159 395.2 309.726 395.2C308.059 395.2 307.226 394.65 307.226 393.55C307.226 392.45 308.059 391.9 309.726 391.9L311.926 392L311.826 386.4C311.826 384.733 312.459 383.9 313.726 383.9C314.992 383.9 315.626 384.733 315.626 386.4L315.476 392.05L319.526 391.85C321.192 391.85 322.026 392.417 322.026 393.55C322.026 394.617 321.192 395.15 319.526 395.15ZM83.8699 457.75C80.3699 457.75 77.4866 460.633 75.2199 466.4V474.35C77.1866 476.283 79.5533 477.25 82.3199 477.25C84.4533 477.25 86.3199 476.283 87.9199 474.35C89.5533 472.383 90.3699 470.067 90.3699 467.4C90.3699 464.733 89.7866 462.467 88.6199 460.6C87.4866 458.7 85.9033 457.75 83.8699 457.75ZM75.2199 478.05C75.1533 480.583 75.1199 482.683 75.1199 484.35C75.1199 486.05 75.1033 487.3 75.0699 488.1C75.0033 489.467 74.8533 490.333 74.6199 490.7C74.3199 491.233 73.8033 491.5 73.0699 491.5C72.3699 491.5 71.8033 491.217 71.3699 490.65C70.9366 490.083 70.7199 489.15 70.7199 487.85C70.7199 486.55 70.7699 485.317 70.8699 484.15L71.4699 478.2C71.8366 474.367 72.0533 472.117 72.1199 471.45V470.5L72.1699 468.6V467.8C72.1699 466.4 72.0199 464.35 71.7199 461.65C71.4199 458.95 71.2699 457.3 71.2699 456.7C71.2699 456.1 71.4533 455.583 71.8199 455.15C72.1866 454.717 72.6533 454.5 73.2199 454.5C73.7866 454.5 74.2533 454.717 74.6199 455.15C74.9866 455.583 75.1699 456.05 75.1699 456.55C75.1699 457.05 75.1533 457.817 75.1199 458.85C75.1199 459.883 75.1199 460.583 75.1199 460.95C76.2866 458.783 77.5533 457.167 78.9199 456.1C80.3199 455.033 82.0866 454.5 84.2199 454.5C86.3533 454.5 88.1866 455.2 89.7199 456.6C92.6199 459.167 94.0699 462.617 94.0699 466.95C94.0699 470.583 92.9699 473.75 90.7699 476.45C88.5699 479.15 85.7533 480.5 82.3199 480.5C79.8199 480.5 77.4533 479.683 75.2199 478.05ZM103.936 444.5L103.686 461.25L103.936 478C103.936 479.667 103.302 480.5 102.036 480.5C100.769 480.5 100.136 479.667 100.136 478L100.386 461.25L100.136 444.5C100.136 442.833 100.769 442 102.036 442C103.302 442 103.936 442.833 103.936 444.5ZM130.967 467.9C130.967 470.333 131.134 472.367 131.467 474C131.834 475.6 132.284 476.5 132.817 476.7C133.017 476.8 133.251 476.867 133.517 476.9C133.817 476.933 134.017 476.983 134.117 477.05C134.251 477.117 134.317 477.25 134.317 477.45C134.317 478.383 134.067 479.133 133.567 479.7C133.067 480.233 132.334 480.5 131.367 480.5C130.434 480.5 129.701 479.9 129.167 478.7C128.634 477.467 128.367 475.867 128.367 473.9C127.467 475.833 126.217 477.417 124.617 478.65C123.017 479.883 121.201 480.5 119.167 480.5C117.167 480.5 115.451 479.833 114.017 478.5C111.351 476.033 110.017 472.55 110.017 468.05C110.017 464.417 111.067 461.25 113.167 458.55C115.267 455.85 117.967 454.5 121.267 454.5C123.767 454.5 125.934 455.35 127.767 457.05C127.767 455.35 128.401 454.5 129.667 454.5C131.201 454.5 131.967 455.65 131.967 457.95C131.967 460.217 131.634 463.533 130.967 467.9ZM128.067 468.35L127.817 460.65C125.851 458.717 123.767 457.75 121.567 457.75C119.367 457.75 117.484 458.733 115.917 460.7C114.351 462.667 113.567 465.05 113.567 467.85C113.567 470.617 114.084 472.883 115.117 474.65C116.151 476.383 117.584 477.25 119.417 477.25C121.251 477.25 122.934 476.433 124.467 474.8C126.034 473.167 127.234 471.017 128.067 468.35ZM158.238 474.85C159.071 474.85 159.488 475.3 159.488 476.2C159.488 477.067 158.521 478.05 156.588 479.15C154.621 480.217 152.588 480.75 150.488 480.75C147.021 480.75 144.104 479.467 141.738 476.9C139.404 474.333 138.238 471.2 138.238 467.5C138.238 463.8 139.404 460.667 141.738 458.1C144.071 455.533 147.171 454.25 151.038 454.25C153.104 454.25 154.954 454.733 156.588 455.7C158.221 456.633 159.038 457.567 159.038 458.5C159.038 459.433 158.704 460.033 158.038 460.3C157.838 460.367 157.554 460.4 157.188 460.4C156.854 460.4 156.421 460.167 155.888 459.7C154.121 458.233 152.354 457.5 150.588 457.5C148.288 457.5 146.271 458.467 144.538 460.4C142.838 462.333 141.988 464.7 141.988 467.5C141.988 470.267 142.854 472.633 144.588 474.6C146.354 476.533 148.504 477.5 151.038 477.5C153.038 477.5 154.954 476.833 156.788 475.5C157.421 475.067 157.904 474.85 158.238 474.85ZM176.348 457.5C174.148 457.5 172.298 458.333 170.798 460C169.331 461.633 168.365 463.55 167.898 465.75C169.698 466.283 171.715 466.55 173.948 466.55C176.215 466.55 178.031 466.167 179.398 465.4C180.765 464.633 181.448 463.583 181.448 462.25C181.448 460.917 180.981 459.8 180.048 458.9C179.148 457.967 177.915 457.5 176.348 457.5ZM174.198 469.7C172.465 469.7 170.348 469.45 167.848 468.95C168.048 471.317 168.915 473.333 170.448 475C172.015 476.667 173.831 477.5 175.898 477.5C177.965 477.5 179.665 477 180.998 476C182.331 474.967 183.198 474.45 183.598 474.45C184.031 474.45 184.365 474.583 184.598 474.85C184.865 475.083 184.998 475.383 184.998 475.75C184.998 476.683 184.031 477.75 182.098 478.95C180.198 480.15 178.131 480.75 175.898 480.75C172.431 480.75 169.665 479.533 167.598 477.1C165.565 474.633 164.481 471.7 164.348 468.3C162.581 467.733 161.698 466.867 161.698 465.7C161.698 464.933 161.981 464.433 162.548 464.2C162.748 464.133 162.998 464.1 163.298 464.1C163.631 464.1 164.081 464.25 164.648 464.55C165.415 461.517 166.798 459.05 168.798 457.15C170.831 455.217 173.198 454.25 175.898 454.25C178.631 454.25 180.831 455 182.498 456.5C184.165 458 184.998 459.967 184.998 462.4C184.998 464.8 183.965 466.617 181.898 467.85C179.831 469.083 177.265 469.7 174.198 469.7ZM212.151 464.25L211.901 472.1V474.25C211.968 475.617 212.301 476.433 212.901 476.7C213.135 476.767 213.401 476.833 213.701 476.9C214.001 476.933 214.201 476.983 214.301 477.05C214.435 477.117 214.501 477.25 214.501 477.45C214.501 478.317 214.218 479.05 213.651 479.65C213.118 480.217 212.485 480.5 211.751 480.5C210.518 480.5 209.651 480.017 209.151 479.05C208.651 478.083 208.401 476.6 208.401 474.6L208.601 465.4C208.601 463.1 208.101 461.267 207.101 459.9C206.135 458.5 204.801 457.8 203.101 457.8C201.401 457.8 199.751 458.75 198.151 460.65C196.585 462.517 195.468 464.667 194.801 467.1L194.951 477.95C194.951 479.65 194.318 480.5 193.051 480.5C191.518 480.5 190.751 479.367 190.751 477.1C190.751 474.8 191.085 471.467 191.751 467.1C191.751 464.833 191.601 460.567 191.301 454.3C191.001 448 190.851 444.6 190.851 444.1C190.851 443.6 191.018 443.117 191.351 442.65C191.718 442.183 192.085 441.95 192.451 441.95C192.851 441.95 193.218 442.033 193.551 442.2C194.351 442.567 194.751 443.217 194.751 444.15C194.751 444.283 194.751 444.4 194.751 444.5V460.85C197.185 456.617 200.185 454.5 203.751 454.5C206.451 454.5 208.518 455.467 209.951 457.4C211.418 459.3 212.151 461.583 212.151 464.25ZM222.159 467.55C222.159 470.317 222.925 472.667 224.459 474.6C225.992 476.533 227.909 477.5 230.209 477.5C232.542 477.5 234.509 476.533 236.109 474.6C237.742 472.633 238.559 470.267 238.559 467.5C238.559 464.733 237.775 462.383 236.209 460.45C234.675 458.483 232.759 457.5 230.459 457.5C228.192 457.5 226.225 458.483 224.559 460.45C222.959 462.417 222.159 464.783 222.159 467.55ZM221.909 476.95C219.709 474.383 218.609 471.25 218.609 467.55C218.609 463.85 219.725 460.717 221.959 458.15C224.192 455.55 227.009 454.25 230.409 454.25C233.809 454.25 236.609 455.533 238.809 458.1C241.009 460.633 242.109 463.767 242.109 467.5C242.109 471.2 240.975 474.333 238.709 476.9C236.475 479.467 233.659 480.75 230.259 480.75C226.892 480.75 224.109 479.483 221.909 476.95ZM251.885 444.5L251.635 461.25L251.885 478C251.885 479.667 251.251 480.5 249.985 480.5C248.718 480.5 248.085 479.667 248.085 478L248.335 461.25L248.085 444.5C248.085 442.833 248.718 442 249.985 442C251.251 442 251.885 442.833 251.885 444.5ZM276.766 468.6V460.65C274.8 458.717 272.433 457.75 269.666 457.75C267.566 457.75 265.7 458.733 264.066 460.7C262.433 462.633 261.616 464.933 261.616 467.6C261.616 470.233 262.2 472.517 263.366 474.45C264.533 476.317 266.116 477.25 268.116 477.25C271.616 477.25 274.5 474.367 276.766 468.6ZM278.866 442C280.5 442 281.316 443.35 281.316 446.05C281.316 447.083 281.25 448.283 281.116 449.65L280.516 456.2C280.15 460.267 279.933 462.717 279.866 463.55C279.866 467.917 280.016 471.183 280.316 473.35C280.65 475.483 281.233 476.633 282.066 476.8C282.933 476.8 283.366 477.05 283.366 477.55C283.366 478.283 283.116 478.967 282.616 479.6C282.15 480.2 281.466 480.5 280.566 480.5C278.7 480.5 277.55 478.267 277.116 473.8C274.65 478.267 271.566 480.5 267.866 480.5C265.666 480.5 263.8 479.8 262.266 478.4C259.366 475.833 257.916 472.383 257.916 468.05C257.916 464.417 259.016 461.25 261.216 458.55C263.416 455.85 266.233 454.5 269.666 454.5C272.166 454.5 274.533 455.317 276.766 456.95C276.833 450.75 276.866 446.967 276.866 445.6C276.866 444.233 277.016 443.3 277.316 442.8C277.65 442.267 278.166 442 278.866 442ZM300.567 457.5C298.367 457.5 296.517 458.333 295.017 460C293.55 461.633 292.583 463.55 292.117 465.75C293.917 466.283 295.933 466.55 298.167 466.55C300.433 466.55 302.25 466.167 303.617 465.4C304.983 464.633 305.667 463.583 305.667 462.25C305.667 460.917 305.2 459.8 304.267 458.9C303.367 457.967 302.133 457.5 300.567 457.5ZM298.417 469.7C296.683 469.7 294.567 469.45 292.067 468.95C292.267 471.317 293.133 473.333 294.667 475C296.233 476.667 298.05 477.5 300.117 477.5C302.183 477.5 303.883 477 305.217 476C306.55 474.967 307.417 474.45 307.817 474.45C308.25 474.45 308.583 474.583 308.817 474.85C309.083 475.083 309.217 475.383 309.217 475.75C309.217 476.683 308.25 477.75 306.317 478.95C304.417 480.15 302.35 480.75 300.117 480.75C296.65 480.75 293.883 479.533 291.817 477.1C289.783 474.633 288.7 471.7 288.567 468.3C286.8 467.733 285.917 466.867 285.917 465.7C285.917 464.933 286.2 464.433 286.767 464.2C286.967 464.133 287.217 464.1 287.517 464.1C287.85 464.1 288.3 464.25 288.867 464.55C289.633 461.517 291.017 459.05 293.017 457.15C295.05 455.217 297.417 454.25 300.117 454.25C302.85 454.25 305.05 455 306.717 456.5C308.383 458 309.217 459.967 309.217 462.4C309.217 464.8 308.183 466.617 306.117 467.85C304.05 469.083 301.483 469.7 298.417 469.7ZM319.12 468.55L319.27 477.95C319.27 479.65 318.637 480.5 317.37 480.5C315.837 480.5 315.07 479.367 315.07 477.1C315.07 474.8 315.403 471.467 316.07 467.1C316.07 465.7 315.92 463.75 315.62 461.25C315.353 458.717 315.22 457.183 315.22 456.65C315.22 456.117 315.403 455.633 315.77 455.2C316.137 454.733 316.603 454.5 317.17 454.5C317.737 454.5 318.203 454.733 318.57 455.2C318.937 455.633 319.12 456.083 319.12 456.55C319.12 457.017 319.103 457.767 319.07 458.8C319.07 459.833 319.07 460.55 319.07 460.95C319.703 459.283 320.737 457.783 322.17 456.45C323.637 455.15 325.087 454.5 326.52 454.5C327.987 454.5 329.137 454.8 329.97 455.4C330.837 455.967 331.27 456.617 331.27 457.35C331.27 458.083 331.087 458.65 330.72 459.05C330.353 459.45 329.87 459.65 329.27 459.65C328.703 459.65 328.07 459.35 327.37 458.75C326.737 458.117 326.203 457.8 325.77 457.8C324.67 457.8 323.387 459 321.92 461.4C320.453 463.767 319.52 466.15 319.12 468.55Z" fill="white"/>
</svg>
