<svg width="800" height="400" viewBox="0 0 800 400" fill="none" xmlns="http://www.w3.org/2000/svg">
<rect width="800" height="400" fill="#D9D9D9"/>
<path d="M82.7527 199.1L82.9027 190.6C82.9027 185.167 81.6694 182.45 79.2027 182.45C78.5027 182.45 77.9361 182.667 77.5027 183.1C77.1027 183.5 76.9194 183.933 76.9527 184.4C76.9861 184.867 77.1361 185.25 77.4027 185.55C77.6027 185.683 77.9527 185.85 78.4527 186.05C79.5194 186.483 80.0527 187.083 80.0527 187.85C80.0527 189.017 79.4194 189.6 78.1527 189.6C76.8861 189.6 75.7861 189.1 74.8527 188.1C73.9527 187.067 73.5027 185.833 73.5027 184.4C73.5027 182.933 74.0027 181.633 75.0027 180.5C76.0027 179.333 77.3194 178.75 78.9527 178.75C82.1527 178.75 84.2861 179.867 85.3527 182.1C86.2861 183.933 86.7527 186.633 86.7527 190.2L86.5527 198.9C86.5527 203.567 86.9527 207.25 87.7527 209.95C88.5861 212.65 89.7027 214 91.1027 214C92.7361 214 94.2361 212.617 95.6027 209.85C96.9694 207.05 97.6527 204.05 97.6527 200.85L97.5527 189.7C97.5527 187.5 98.2694 186.4 99.7027 186.4C101.436 186.4 102.303 187.783 102.303 190.55C102.303 191.417 101.969 194.95 101.303 201.15C101.336 204.217 102.036 207.1 103.403 209.8C104.769 212.467 106.253 213.8 107.853 213.8C109.319 213.8 110.469 212.467 111.303 209.8C112.136 207.133 112.553 203.45 112.553 198.75L112.353 190.2C112.353 186.7 112.769 184 113.603 182.1C114.536 179.867 116.519 178.75 119.553 178.75C120.786 178.75 121.869 179.15 122.803 179.95C123.769 180.75 124.253 181.55 124.253 182.35C124.253 183.15 123.886 183.55 123.153 183.55C122.919 183.55 122.453 183.367 121.753 183C121.053 182.633 120.436 182.45 119.903 182.45C117.436 182.45 116.203 185.167 116.203 190.6L116.353 198.95C116.353 204.917 115.619 209.5 114.153 212.7C112.719 215.9 110.569 217.5 107.703 217.5C105.869 217.5 104.253 216.683 102.853 215.05C101.453 213.383 100.336 211.1 99.5027 208.2C98.7027 211.167 97.5861 213.5 96.1527 215.2C94.7527 216.9 93.1194 217.75 91.2527 217.75C88.4194 217.75 86.2861 216.15 84.8527 212.95C83.4527 209.75 82.7527 205.133 82.7527 199.1ZM131.131 180.75C132.498 180.75 133.181 181.55 133.181 183.15C133.181 183.883 132.931 184.583 132.431 185.25C131.965 185.883 131.398 186.2 130.731 186.2C129.331 186.2 128.631 185.35 128.631 183.65C128.631 182.85 128.865 182.167 129.331 181.6C129.831 181.033 130.431 180.75 131.131 180.75ZM132.781 194L132.531 204.5L132.781 215C132.781 216.667 132.148 217.5 130.881 217.5C129.615 217.5 128.981 216.667 128.981 215L129.231 204.5L128.981 194C128.981 192.333 129.615 191.5 130.881 191.5C132.148 191.5 132.781 192.333 132.781 194ZM157.663 205.6V197.65C155.696 195.717 153.33 194.75 150.563 194.75C148.463 194.75 146.596 195.733 144.963 197.7C143.33 199.633 142.513 201.933 142.513 204.6C142.513 207.233 143.096 209.517 144.263 211.45C145.43 213.317 147.013 214.25 149.013 214.25C152.513 214.25 155.396 211.367 157.663 205.6ZM159.763 179C161.396 179 162.213 180.35 162.213 183.05C162.213 184.083 162.146 185.283 162.013 186.65L161.413 193.2C161.046 197.267 160.83 199.717 160.763 200.55C160.763 204.917 160.913 208.183 161.213 210.35C161.546 212.483 162.13 213.633 162.963 213.8C163.83 213.8 164.263 214.05 164.263 214.55C164.263 215.283 164.013 215.967 163.513 216.6C163.046 217.2 162.363 217.5 161.463 217.5C159.596 217.5 158.446 215.267 158.013 210.8C155.546 215.267 152.463 217.5 148.763 217.5C146.563 217.5 144.696 216.8 143.163 215.4C140.263 212.833 138.813 209.383 138.813 205.05C138.813 201.417 139.913 198.25 142.113 195.55C144.313 192.85 147.13 191.5 150.563 191.5C153.063 191.5 155.43 192.317 157.663 193.95C157.73 187.75 157.763 183.967 157.763 182.6C157.763 181.233 157.913 180.3 158.213 179.8C158.546 179.267 159.063 179 159.763 179ZM181.463 194.5C179.263 194.5 177.413 195.333 175.913 197C174.447 198.633 173.48 200.55 173.013 202.75C174.813 203.283 176.83 203.55 179.063 203.55C181.33 203.55 183.147 203.167 184.513 202.4C185.88 201.633 186.563 200.583 186.563 199.25C186.563 197.917 186.097 196.8 185.163 195.9C184.263 194.967 183.03 194.5 181.463 194.5ZM179.313 206.7C177.58 206.7 175.463 206.45 172.963 205.95C173.163 208.317 174.03 210.333 175.563 212C177.13 213.667 178.947 214.5 181.013 214.5C183.08 214.5 184.78 214 186.113 213C187.447 211.967 188.313 211.45 188.713 211.45C189.147 211.45 189.48 211.583 189.713 211.85C189.98 212.083 190.113 212.383 190.113 212.75C190.113 213.683 189.147 214.75 187.213 215.95C185.313 217.15 183.247 217.75 181.013 217.75C177.547 217.75 174.78 216.533 172.713 214.1C170.68 211.633 169.597 208.7 169.463 205.3C167.697 204.733 166.813 203.867 166.813 202.7C166.813 201.933 167.097 201.433 167.663 201.2C167.863 201.133 168.113 201.1 168.413 201.1C168.747 201.1 169.197 201.25 169.763 201.55C170.53 198.517 171.913 196.05 173.913 194.15C175.947 192.217 178.313 191.25 181.013 191.25C183.747 191.25 185.947 192 187.613 193.5C189.28 195 190.113 196.967 190.113 199.4C190.113 201.8 189.08 203.617 187.013 204.85C184.947 206.083 182.38 206.7 179.313 206.7ZM225.28 209.8C225.28 212.033 224.347 213.883 222.48 215.35C220.647 216.783 218.447 217.5 215.88 217.5C213.314 217.5 211.064 216.917 209.13 215.75C207.23 214.55 206.28 213.367 206.28 212.2C206.28 211.433 206.597 210.917 207.23 210.65C207.864 210.383 208.347 210.417 208.68 210.75C208.747 210.783 209.414 211.433 210.68 212.7C211.047 213.033 211.73 213.383 212.73 213.75C213.73 214.083 214.614 214.25 215.38 214.25C217.247 214.25 218.764 213.867 219.93 213.1C221.097 212.333 221.68 211.25 221.68 209.85C221.68 208.083 220.014 206.633 216.68 205.5C212.98 204.233 210.614 203.15 209.58 202.25C209.08 201.817 208.614 201.25 208.18 200.55C207.78 199.817 207.58 199.05 207.58 198.25C207.58 196.45 208.397 194.883 210.03 193.55C211.697 192.183 213.68 191.5 215.98 191.5C218.28 191.5 220.147 191.9 221.58 192.7C223.014 193.467 223.73 194.333 223.73 195.3C223.73 196.4 223.147 196.95 221.98 196.95C221.514 196.95 221.014 196.767 220.48 196.4C218.88 195.3 217.33 194.75 215.83 194.75C214.364 194.75 213.247 195.083 212.48 195.75C211.58 196.383 211.13 197.133 211.13 198C211.13 198.833 211.564 199.517 212.43 200.05C213.297 200.583 214.714 201.25 216.68 202.05C218.647 202.817 219.847 203.3 220.28 203.5C221.747 204.133 222.947 205 223.88 206.1C224.814 207.2 225.28 208.433 225.28 209.8ZM249.534 211.85C250.368 211.85 250.784 212.3 250.784 213.2C250.784 214.067 249.818 215.05 247.884 216.15C245.918 217.217 243.884 217.75 241.784 217.75C238.318 217.75 235.401 216.467 233.034 213.9C230.701 211.333 229.534 208.2 229.534 204.5C229.534 200.8 230.701 197.667 233.034 195.1C235.368 192.533 238.468 191.25 242.334 191.25C244.401 191.25 246.251 191.733 247.884 192.7C249.518 193.633 250.334 194.567 250.334 195.5C250.334 196.433 250.001 197.033 249.334 197.3C249.134 197.367 248.851 197.4 248.484 197.4C248.151 197.4 247.718 197.167 247.184 196.7C245.418 195.233 243.651 194.5 241.884 194.5C239.584 194.5 237.568 195.467 235.834 197.4C234.134 199.333 233.284 201.7 233.284 204.5C233.284 207.267 234.151 209.633 235.884 211.6C237.651 213.533 239.801 214.5 242.334 214.5C244.334 214.5 246.251 213.833 248.084 212.5C248.718 212.067 249.201 211.85 249.534 211.85ZM260.124 205.55L260.274 214.95C260.274 216.65 259.64 217.5 258.374 217.5C256.84 217.5 256.074 216.367 256.074 214.1C256.074 211.8 256.407 208.467 257.074 204.1C257.074 202.7 256.924 200.75 256.624 198.25C256.357 195.717 256.224 194.183 256.224 193.65C256.224 193.117 256.407 192.633 256.774 192.2C257.14 191.733 257.607 191.5 258.174 191.5C258.74 191.5 259.207 191.733 259.574 192.2C259.94 192.633 260.124 193.083 260.124 193.55C260.124 194.017 260.107 194.767 260.074 195.8C260.074 196.833 260.074 197.55 260.074 197.95C260.707 196.283 261.74 194.783 263.174 193.45C264.64 192.15 266.09 191.5 267.524 191.5C268.99 191.5 270.14 191.8 270.974 192.4C271.84 192.967 272.274 193.617 272.274 194.35C272.274 195.083 272.09 195.65 271.724 196.05C271.357 196.45 270.874 196.65 270.274 196.65C269.707 196.65 269.074 196.35 268.374 195.75C267.74 195.117 267.207 194.8 266.774 194.8C265.674 194.8 264.39 196 262.924 198.4C261.457 200.767 260.524 203.15 260.124 205.55ZM287.42 194.5C285.22 194.5 283.37 195.333 281.87 197C280.404 198.633 279.437 200.55 278.97 202.75C280.77 203.283 282.787 203.55 285.02 203.55C287.287 203.55 289.104 203.167 290.47 202.4C291.837 201.633 292.52 200.583 292.52 199.25C292.52 197.917 292.054 196.8 291.12 195.9C290.22 194.967 288.987 194.5 287.42 194.5ZM285.27 206.7C283.537 206.7 281.42 206.45 278.92 205.95C279.12 208.317 279.987 210.333 281.52 212C283.087 213.667 284.904 214.5 286.97 214.5C289.037 214.5 290.737 214 292.07 213C293.404 211.967 294.27 211.45 294.67 211.45C295.104 211.45 295.437 211.583 295.67 211.85C295.937 212.083 296.07 212.383 296.07 212.75C296.07 213.683 295.104 214.75 293.17 215.95C291.27 217.15 289.204 217.75 286.97 217.75C283.504 217.75 280.737 216.533 278.67 214.1C276.637 211.633 275.554 208.7 275.42 205.3C273.654 204.733 272.77 203.867 272.77 202.7C272.77 201.933 273.054 201.433 273.62 201.2C273.82 201.133 274.07 201.1 274.37 201.1C274.704 201.1 275.154 201.25 275.72 201.55C276.487 198.517 277.87 196.05 279.87 194.15C281.904 192.217 284.27 191.25 286.97 191.25C289.704 191.25 291.904 192 293.57 193.5C295.237 195 296.07 196.967 296.07 199.4C296.07 201.8 295.037 203.617 292.97 204.85C290.904 206.083 288.337 206.7 285.27 206.7ZM314.373 194.5C312.173 194.5 310.323 195.333 308.823 197C307.357 198.633 306.39 200.55 305.923 202.75C307.723 203.283 309.74 203.55 311.973 203.55C314.24 203.55 316.057 203.167 317.423 202.4C318.79 201.633 319.473 200.583 319.473 199.25C319.473 197.917 319.007 196.8 318.073 195.9C317.173 194.967 315.94 194.5 314.373 194.5ZM312.223 206.7C310.49 206.7 308.373 206.45 305.873 205.95C306.073 208.317 306.94 210.333 308.473 212C310.04 213.667 311.857 214.5 313.923 214.5C315.99 214.5 317.69 214 319.023 213C320.357 211.967 321.223 211.45 321.623 211.45C322.057 211.45 322.39 211.583 322.623 211.85C322.89 212.083 323.023 212.383 323.023 212.75C323.023 213.683 322.057 214.75 320.123 215.95C318.223 217.15 316.157 217.75 313.923 217.75C310.457 217.75 307.69 216.533 305.623 214.1C303.59 211.633 302.507 208.7 302.373 205.3C300.607 204.733 299.723 203.867 299.723 202.7C299.723 201.933 300.007 201.433 300.573 201.2C300.773 201.133 301.023 201.1 301.323 201.1C301.657 201.1 302.107 201.25 302.673 201.55C303.44 198.517 304.823 196.05 306.823 194.15C308.857 192.217 311.223 191.25 313.923 191.25C316.657 191.25 318.857 192 320.523 193.5C322.19 195 323.023 196.967 323.023 199.4C323.023 201.8 321.99 203.617 319.923 204.85C317.857 206.083 315.29 206.7 312.223 206.7ZM350.277 201.25L350.027 209.1V211.25C350.093 212.617 350.427 213.433 351.027 213.7C351.26 213.767 351.527 213.833 351.827 213.9C352.127 213.933 352.327 213.983 352.427 214.05C352.56 214.117 352.627 214.25 352.627 214.45C352.627 215.317 352.343 216.05 351.777 216.65C351.243 217.217 350.61 217.5 349.877 217.5C348.643 217.5 347.777 217.017 347.277 216.05C346.777 215.083 346.527 213.6 346.527 211.6L346.727 202.4C346.727 200.1 346.227 198.267 345.227 196.9C344.26 195.5 342.927 194.8 341.227 194.8C339.527 194.8 337.877 195.75 336.277 197.65C334.71 199.517 333.593 201.667 332.927 204.1L333.077 214.95C333.077 216.65 332.443 217.5 331.177 217.5C329.643 217.5 328.877 216.367 328.877 214.1C328.877 211.8 329.21 208.467 329.877 204.1C329.877 202.7 329.727 200.733 329.427 198.2C329.16 195.667 329.027 194.133 329.027 193.6C329.027 193.067 329.21 192.583 329.577 192.15C329.943 191.717 330.41 191.5 330.977 191.5C331.543 191.5 332.01 191.717 332.377 192.15C332.743 192.583 332.927 193.05 332.927 193.55C332.927 194.05 332.91 194.8 332.877 195.8C332.877 196.8 332.877 197.483 332.877 197.85C335.31 193.617 338.31 191.5 341.877 191.5C344.543 191.5 346.61 192.467 348.077 194.4C349.543 196.3 350.277 198.583 350.277 201.25ZM375.232 209.8C375.232 212.033 374.298 213.883 372.432 215.35C370.598 216.783 368.398 217.5 365.832 217.5C363.265 217.5 361.015 216.917 359.082 215.75C357.182 214.55 356.232 213.367 356.232 212.2C356.232 211.433 356.548 210.917 357.182 210.65C357.815 210.383 358.298 210.417 358.632 210.75C358.698 210.783 359.365 211.433 360.632 212.7C360.998 213.033 361.682 213.383 362.682 213.75C363.682 214.083 364.565 214.25 365.332 214.25C367.198 214.25 368.715 213.867 369.882 213.1C371.048 212.333 371.632 211.25 371.632 209.85C371.632 208.083 369.965 206.633 366.632 205.5C362.932 204.233 360.565 203.15 359.532 202.25C359.032 201.817 358.565 201.25 358.132 200.55C357.732 199.817 357.532 199.05 357.532 198.25C357.532 196.45 358.348 194.883 359.982 193.55C361.648 192.183 363.632 191.5 365.932 191.5C368.232 191.5 370.098 191.9 371.532 192.7C372.965 193.467 373.682 194.333 373.682 195.3C373.682 196.4 373.098 196.95 371.932 196.95C371.465 196.95 370.965 196.767 370.432 196.4C368.832 195.3 367.282 194.75 365.782 194.75C364.315 194.75 363.198 195.083 362.432 195.75C361.532 196.383 361.082 197.133 361.082 198C361.082 198.833 361.515 199.517 362.382 200.05C363.248 200.583 364.665 201.25 366.632 202.05C368.598 202.817 369.798 203.3 370.232 203.5C371.698 204.133 372.898 205 373.832 206.1C374.765 207.2 375.232 208.433 375.232 209.8ZM401.886 201.25L401.636 209.1V211.25C401.702 212.617 402.036 213.433 402.636 213.7C402.869 213.767 403.136 213.833 403.436 213.9C403.736 213.933 403.936 213.983 404.036 214.05C404.169 214.117 404.236 214.25 404.236 214.45C404.236 215.317 403.952 216.05 403.386 216.65C402.852 217.217 402.219 217.5 401.486 217.5C400.252 217.5 399.386 217.017 398.886 216.05C398.386 215.083 398.136 213.6 398.136 211.6L398.336 202.4C398.336 200.1 397.836 198.267 396.836 196.9C395.869 195.5 394.536 194.8 392.836 194.8C391.136 194.8 389.486 195.75 387.886 197.65C386.319 199.517 385.202 201.667 384.536 204.1L384.686 214.95C384.686 216.65 384.052 217.5 382.786 217.5C381.252 217.5 380.486 216.367 380.486 214.1C380.486 211.8 380.819 208.467 381.486 204.1C381.486 201.833 381.336 197.567 381.036 191.3C380.736 185 380.586 181.6 380.586 181.1C380.586 180.6 380.752 180.117 381.086 179.65C381.452 179.183 381.819 178.95 382.186 178.95C382.586 178.95 382.952 179.033 383.286 179.2C384.086 179.567 384.486 180.217 384.486 181.15C384.486 181.283 384.486 181.4 384.486 181.5V197.85C386.919 193.617 389.919 191.5 393.486 191.5C396.186 191.5 398.252 192.467 399.686 194.4C401.152 196.3 401.886 198.583 401.886 201.25ZM411.893 204.55C411.893 207.317 412.66 209.667 414.193 211.6C415.726 213.533 417.643 214.5 419.943 214.5C422.276 214.5 424.243 213.533 425.843 211.6C427.476 209.633 428.293 207.267 428.293 204.5C428.293 201.733 427.51 199.383 425.943 197.45C424.41 195.483 422.493 194.5 420.193 194.5C417.926 194.5 415.96 195.483 414.293 197.45C412.693 199.417 411.893 201.783 411.893 204.55ZM411.643 213.95C409.443 211.383 408.343 208.25 408.343 204.55C408.343 200.85 409.46 197.717 411.693 195.15C413.926 192.55 416.743 191.25 420.143 191.25C423.543 191.25 426.343 192.533 428.543 195.1C430.743 197.633 431.843 200.767 431.843 204.5C431.843 208.2 430.71 211.333 428.443 213.9C426.21 216.467 423.393 217.75 419.993 217.75C416.626 217.75 413.843 216.483 411.643 213.95ZM447.077 195.15L442.927 195.05L442.827 206.9C442.827 209.967 442.944 211.967 443.177 212.9C443.411 213.8 444.077 214.25 445.177 214.25C445.711 214.25 446.344 214.083 447.077 213.75C447.811 213.383 448.261 213.2 448.427 213.2C449.127 213.2 449.477 213.55 449.477 214.25C449.477 214.95 448.861 215.667 447.627 216.4C446.394 217.133 445.177 217.5 443.977 217.5C441.077 217.5 439.627 215.367 439.627 211.1L439.577 195.05C438.477 195.15 437.711 195.2 437.277 195.2C435.611 195.2 434.777 194.65 434.777 193.55C434.777 192.45 435.611 191.9 437.277 191.9L439.477 192L439.377 186.4C439.377 184.733 440.011 183.9 441.277 183.9C442.544 183.9 443.177 184.733 443.177 186.4L443.027 192.05L447.077 191.85C448.744 191.85 449.577 192.417 449.577 193.55C449.577 194.617 448.744 195.15 447.077 195.15ZM478.487 194.75C474.987 194.75 472.104 197.633 469.837 203.4V211.35C471.804 213.283 474.17 214.25 476.937 214.25C479.07 214.25 480.937 213.283 482.537 211.35C484.17 209.383 484.987 207.067 484.987 204.4C484.987 201.733 484.404 199.467 483.237 197.6C482.104 195.7 480.52 194.75 478.487 194.75ZM469.837 215.05C469.77 217.583 469.737 219.683 469.737 221.35C469.737 223.05 469.72 224.3 469.687 225.1C469.62 226.467 469.47 227.333 469.237 227.7C468.937 228.233 468.42 228.5 467.687 228.5C466.987 228.5 466.42 228.217 465.987 227.65C465.554 227.083 465.337 226.15 465.337 224.85C465.337 223.55 465.387 222.317 465.487 221.15L466.087 215.2C466.454 211.367 466.67 209.117 466.737 208.45V207.5L466.787 205.6V204.8C466.787 203.4 466.637 201.35 466.337 198.65C466.037 195.95 465.887 194.3 465.887 193.7C465.887 193.1 466.07 192.583 466.437 192.15C466.804 191.717 467.27 191.5 467.837 191.5C468.404 191.5 468.87 191.717 469.237 192.15C469.604 192.583 469.787 193.05 469.787 193.55C469.787 194.05 469.77 194.817 469.737 195.85C469.737 196.883 469.737 197.583 469.737 197.95C470.904 195.783 472.17 194.167 473.537 193.1C474.937 192.033 476.704 191.5 478.837 191.5C480.97 191.5 482.804 192.2 484.337 193.6C487.237 196.167 488.687 199.617 488.687 203.95C488.687 207.583 487.587 210.75 485.387 213.45C483.187 216.15 480.37 217.5 476.937 217.5C474.437 217.5 472.07 216.683 469.837 215.05ZM498.553 181.5L498.303 198.25L498.553 215C498.553 216.667 497.919 217.5 496.653 217.5C495.386 217.5 494.753 216.667 494.753 215L495.003 198.25L494.753 181.5C494.753 179.833 495.386 179 496.653 179C497.919 179 498.553 179.833 498.553 181.5ZM525.584 204.9C525.584 207.333 525.751 209.367 526.084 211C526.451 212.6 526.901 213.5 527.434 213.7C527.634 213.8 527.868 213.867 528.134 213.9C528.434 213.933 528.634 213.983 528.734 214.05C528.868 214.117 528.934 214.25 528.934 214.45C528.934 215.383 528.684 216.133 528.184 216.7C527.684 217.233 526.951 217.5 525.984 217.5C525.051 217.5 524.318 216.9 523.784 215.7C523.251 214.467 522.984 212.867 522.984 210.9C522.084 212.833 520.834 214.417 519.234 215.65C517.634 216.883 515.818 217.5 513.784 217.5C511.784 217.5 510.068 216.833 508.634 215.5C505.968 213.033 504.634 209.55 504.634 205.05C504.634 201.417 505.684 198.25 507.784 195.55C509.884 192.85 512.584 191.5 515.884 191.5C518.384 191.5 520.551 192.35 522.384 194.05C522.384 192.35 523.018 191.5 524.284 191.5C525.818 191.5 526.584 192.65 526.584 194.95C526.584 197.217 526.251 200.533 525.584 204.9ZM522.684 205.35L522.434 197.65C520.468 195.717 518.384 194.75 516.184 194.75C513.984 194.75 512.101 195.733 510.534 197.7C508.968 199.667 508.184 202.05 508.184 204.85C508.184 207.617 508.701 209.883 509.734 211.65C510.768 213.383 512.201 214.25 514.034 214.25C515.868 214.25 517.551 213.433 519.084 211.8C520.651 210.167 521.851 208.017 522.684 205.35ZM552.855 211.85C553.688 211.85 554.105 212.3 554.105 213.2C554.105 214.067 553.138 215.05 551.205 216.15C549.238 217.217 547.205 217.75 545.105 217.75C541.638 217.75 538.721 216.467 536.355 213.9C534.021 211.333 532.855 208.2 532.855 204.5C532.855 200.8 534.021 197.667 536.355 195.1C538.688 192.533 541.788 191.25 545.655 191.25C547.721 191.25 549.571 191.733 551.205 192.7C552.838 193.633 553.655 194.567 553.655 195.5C553.655 196.433 553.321 197.033 552.655 197.3C552.455 197.367 552.171 197.4 551.805 197.4C551.471 197.4 551.038 197.167 550.505 196.7C548.738 195.233 546.971 194.5 545.205 194.5C542.905 194.5 540.888 195.467 539.155 197.4C537.455 199.333 536.605 201.7 536.605 204.5C536.605 207.267 537.471 209.633 539.205 211.6C540.971 213.533 543.121 214.5 545.655 214.5C547.655 214.5 549.571 213.833 551.405 212.5C552.038 212.067 552.521 211.85 552.855 211.85ZM570.965 194.5C568.765 194.5 566.915 195.333 565.415 197C563.949 198.633 562.982 200.55 562.515 202.75C564.315 203.283 566.332 203.55 568.565 203.55C570.832 203.55 572.649 203.167 574.015 202.4C575.382 201.633 576.065 200.583 576.065 199.25C576.065 197.917 575.599 196.8 574.665 195.9C573.765 194.967 572.532 194.5 570.965 194.5ZM568.815 206.7C567.082 206.7 564.965 206.45 562.465 205.95C562.665 208.317 563.532 210.333 565.065 212C566.632 213.667 568.449 214.5 570.515 214.5C572.582 214.5 574.282 214 575.615 213C576.949 211.967 577.815 211.45 578.215 211.45C578.649 211.45 578.982 211.583 579.215 211.85C579.482 212.083 579.615 212.383 579.615 212.75C579.615 213.683 578.649 214.75 576.715 215.95C574.815 217.15 572.749 217.75 570.515 217.75C567.049 217.75 564.282 216.533 562.215 214.1C560.182 211.633 559.099 208.7 558.965 205.3C557.199 204.733 556.315 203.867 556.315 202.7C556.315 201.933 556.599 201.433 557.165 201.2C557.365 201.133 557.615 201.1 557.915 201.1C558.249 201.1 558.699 201.25 559.265 201.55C560.032 198.517 561.415 196.05 563.415 194.15C565.449 192.217 567.815 191.25 570.515 191.25C573.249 191.25 575.449 192 577.115 193.5C578.782 195 579.615 196.967 579.615 199.4C579.615 201.8 578.582 203.617 576.515 204.85C574.449 206.083 571.882 206.7 568.815 206.7ZM606.768 201.25L606.518 209.1V211.25C606.585 212.617 606.918 213.433 607.518 213.7C607.752 213.767 608.018 213.833 608.318 213.9C608.618 213.933 608.818 213.983 608.918 214.05C609.052 214.117 609.118 214.25 609.118 214.45C609.118 215.317 608.835 216.05 608.268 216.65C607.735 217.217 607.102 217.5 606.368 217.5C605.135 217.5 604.268 217.017 603.768 216.05C603.268 215.083 603.018 213.6 603.018 211.6L603.218 202.4C603.218 200.1 602.718 198.267 601.718 196.9C600.752 195.5 599.418 194.8 597.718 194.8C596.018 194.8 594.368 195.75 592.768 197.65C591.202 199.517 590.085 201.667 589.418 204.1L589.568 214.95C589.568 216.65 588.935 217.5 587.668 217.5C586.135 217.5 585.368 216.367 585.368 214.1C585.368 211.8 585.702 208.467 586.368 204.1C586.368 201.833 586.218 197.567 585.918 191.3C585.618 185 585.468 181.6 585.468 181.1C585.468 180.6 585.635 180.117 585.968 179.65C586.335 179.183 586.702 178.95 587.068 178.95C587.468 178.95 587.835 179.033 588.168 179.2C588.968 179.567 589.368 180.217 589.368 181.15C589.368 181.283 589.368 181.4 589.368 181.5V197.85C591.802 193.617 594.802 191.5 598.368 191.5C601.068 191.5 603.135 192.467 604.568 194.4C606.035 196.3 606.768 198.583 606.768 201.25ZM616.776 204.55C616.776 207.317 617.542 209.667 619.076 211.6C620.609 213.533 622.526 214.5 624.826 214.5C627.159 214.5 629.126 213.533 630.726 211.6C632.359 209.633 633.176 207.267 633.176 204.5C633.176 201.733 632.392 199.383 630.826 197.45C629.292 195.483 627.376 194.5 625.076 194.5C622.809 194.5 620.842 195.483 619.176 197.45C617.576 199.417 616.776 201.783 616.776 204.55ZM616.526 213.95C614.326 211.383 613.226 208.25 613.226 204.55C613.226 200.85 614.342 197.717 616.576 195.15C618.809 192.55 621.626 191.25 625.026 191.25C628.426 191.25 631.226 192.533 633.426 195.1C635.626 197.633 636.726 200.767 636.726 204.5C636.726 208.2 635.592 211.333 633.326 213.9C631.092 216.467 628.276 217.75 624.876 217.75C621.509 217.75 618.726 216.483 616.526 213.95ZM646.502 181.5L646.252 198.25L646.502 215C646.502 216.667 645.869 217.5 644.602 217.5C643.335 217.5 642.702 216.667 642.702 215L642.952 198.25L642.702 181.5C642.702 179.833 643.335 179 644.602 179C645.869 179 646.502 179.833 646.502 181.5ZM671.384 205.6V197.65C669.417 195.717 667.05 194.75 664.284 194.75C662.184 194.75 660.317 195.733 658.684 197.7C657.05 199.633 656.234 201.933 656.234 204.6C656.234 207.233 656.817 209.517 657.984 211.45C659.15 213.317 660.734 214.25 662.734 214.25C666.234 214.25 669.117 211.367 671.384 205.6ZM673.484 179C675.117 179 675.934 180.35 675.934 183.05C675.934 184.083 675.867 185.283 675.734 186.65L675.134 193.2C674.767 197.267 674.55 199.717 674.484 200.55C674.484 204.917 674.634 208.183 674.934 210.35C675.267 212.483 675.85 213.633 676.684 213.8C677.55 213.8 677.984 214.05 677.984 214.55C677.984 215.283 677.734 215.967 677.234 216.6C676.767 217.2 676.084 217.5 675.184 217.5C673.317 217.5 672.167 215.267 671.734 210.8C669.267 215.267 666.184 217.5 662.484 217.5C660.284 217.5 658.417 216.8 656.884 215.4C653.984 212.833 652.534 209.383 652.534 205.05C652.534 201.417 653.634 198.25 655.834 195.55C658.034 192.85 660.85 191.5 664.284 191.5C666.784 191.5 669.15 192.317 671.384 193.95C671.45 187.75 671.484 183.967 671.484 182.6C671.484 181.233 671.634 180.3 671.934 179.8C672.267 179.267 672.784 179 673.484 179ZM695.184 194.5C692.984 194.5 691.134 195.333 689.634 197C688.167 198.633 687.201 200.55 686.734 202.75C688.534 203.283 690.551 203.55 692.784 203.55C695.051 203.55 696.867 203.167 698.234 202.4C699.601 201.633 700.284 200.583 700.284 199.25C700.284 197.917 699.817 196.8 698.884 195.9C697.984 194.967 696.751 194.5 695.184 194.5ZM693.034 206.7C691.301 206.7 689.184 206.45 686.684 205.95C686.884 208.317 687.751 210.333 689.284 212C690.851 213.667 692.667 214.5 694.734 214.5C696.801 214.5 698.501 214 699.834 213C701.167 211.967 702.034 211.45 702.434 211.45C702.867 211.45 703.201 211.583 703.434 211.85C703.701 212.083 703.834 212.383 703.834 212.75C703.834 213.683 702.867 214.75 700.934 215.95C699.034 217.15 696.967 217.75 694.734 217.75C691.267 217.75 688.501 216.533 686.434 214.1C684.401 211.633 683.317 208.7 683.184 205.3C681.417 204.733 680.534 203.867 680.534 202.7C680.534 201.933 680.817 201.433 681.384 201.2C681.584 201.133 681.834 201.1 682.134 201.1C682.467 201.1 682.917 201.25 683.484 201.55C684.251 198.517 685.634 196.05 687.634 194.15C689.667 192.217 692.034 191.25 694.734 191.25C697.467 191.25 699.667 192 701.334 193.5C703.001 195 703.834 196.967 703.834 199.4C703.834 201.8 702.801 203.617 700.734 204.85C698.667 206.083 696.101 206.7 693.034 206.7ZM713.737 205.55L713.887 214.95C713.887 216.65 713.254 217.5 711.987 217.5C710.454 217.5 709.687 216.367 709.687 214.1C709.687 211.8 710.02 208.467 710.687 204.1C710.687 202.7 710.537 200.75 710.237 198.25C709.97 195.717 709.837 194.183 709.837 193.65C709.837 193.117 710.02 192.633 710.387 192.2C710.754 191.733 711.22 191.5 711.787 191.5C712.354 191.5 712.82 191.733 713.187 192.2C713.554 192.633 713.737 193.083 713.737 193.55C713.737 194.017 713.72 194.767 713.687 195.8C713.687 196.833 713.687 197.55 713.687 197.95C714.32 196.283 715.354 194.783 716.787 193.45C718.254 192.15 719.704 191.5 721.137 191.5C722.604 191.5 723.754 191.8 724.587 192.4C725.454 192.967 725.887 193.617 725.887 194.35C725.887 195.083 725.704 195.65 725.337 196.05C724.97 196.45 724.487 196.65 723.887 196.65C723.32 196.65 722.687 196.35 721.987 195.75C721.354 195.117 720.82 194.8 720.387 194.8C719.287 194.8 718.004 196 716.537 198.4C715.07 200.767 714.137 203.15 713.737 205.55Z" fill="white"/>
</svg>
