<svg width="512" height="512" viewBox="0 0 512 512" fill="none" xmlns="http://www.w3.org/2000/svg">
<circle cx="256" cy="256" r="240" fill="#793B02" stroke="#A95303" stroke-width="32"/>
<path d="M115.142 342.114C115.23 335.73 115.408 328.193 115.674 319.504C116.028 310.726 116.427 301.46 116.871 291.707C117.314 281.865 117.802 272.156 118.334 262.58C118.334 261.073 118.378 259.654 118.467 258.324C118.644 256.905 118.733 255.487 118.733 254.068C118.91 252.561 118.999 251.142 118.999 249.812C118.999 248.393 119.043 246.975 119.132 245.556C119.309 242.896 119.442 240.369 119.531 237.975C119.708 235.492 119.841 233.054 119.93 230.66C130.304 230.394 138.151 229.818 143.471 228.931C148.879 228.044 152.515 226.759 154.377 225.074C156.239 223.389 157.081 221.173 156.904 218.424C156.638 214.789 154.022 212.572 149.057 211.774C144.18 210.976 134.826 211.331 120.994 212.838C121.171 210.799 121.304 208.848 121.393 206.986C121.57 205.035 121.703 203.085 121.792 201.134C122.767 190.051 125.516 182.204 130.038 177.593C134.648 172.894 140.899 170.544 148.791 170.544C156.239 170.544 162.268 172.495 166.879 176.396C171.578 180.209 176.322 186.77 181.11 196.08C184.568 202.73 188.336 211.065 192.415 221.084C196.493 231.103 200.705 241.876 205.05 253.403C209.483 264.841 213.872 276.19 218.217 287.451C222.561 298.623 226.684 308.687 230.586 317.642C231.561 319.947 232.891 321.366 234.576 321.898C236.349 322.341 237.901 321.987 239.231 320.834C240.649 319.681 241.314 317.819 241.226 315.248C240.871 301.682 240.472 287.141 240.029 271.624C239.585 256.019 239.186 240.724 238.832 225.739C238.566 210.666 238.3 197.144 238.034 185.174C237.856 179.411 238.566 175.022 240.162 172.007C241.758 168.904 244.95 167.352 249.738 167.352C254.703 167.352 257.895 168.904 259.314 172.007C260.732 175.022 261.442 179.233 261.442 184.642C261.442 197.853 261.442 212.528 261.442 228.665C261.442 244.714 261.353 261.117 261.176 277.875C261.087 294.633 260.821 310.637 260.378 325.888C260.112 334.755 257.629 341.006 252.93 344.641C248.319 348.276 243.265 350.094 237.768 350.094C234.044 350.094 230.231 349.34 226.33 347.833C222.428 346.326 218.438 343.444 214.36 339.188C206.823 330.942 199.508 322.12 192.415 312.721C185.321 303.234 178.45 293.924 171.8 284.791C165.238 275.57 158.81 267.279 152.515 259.92C151.007 258.147 149.855 256.994 149.057 256.462C148.347 255.93 147.505 255.664 146.53 255.664C144.313 255.664 142.628 256.462 141.476 258.058C140.412 259.654 139.88 261.782 139.88 264.442C139.88 272.954 140.101 281.51 140.545 290.111C141.077 298.712 141.52 307.357 141.875 316.046C142.318 324.735 142.54 333.425 142.54 342.114C142.54 348.409 141.52 353.286 139.481 356.744C137.441 360.113 133.762 361.798 128.442 361.798C123.033 361.798 119.442 359.892 117.669 356.079C115.895 352.178 115.053 347.523 115.142 342.114ZM239.896 191.824C241.137 191.913 242.29 192.046 243.354 192.223C244.506 192.312 245.659 192.445 246.812 192.622C248.408 192.888 249.738 193.42 250.802 194.218C251.954 195.016 252.797 196.08 253.329 197.41C253.949 198.651 254.26 200.07 254.26 201.666C254.26 203.173 253.994 204.548 253.462 205.789C252.93 206.942 252.043 207.917 250.802 208.715C249.649 209.424 248.053 209.823 246.014 209.912C244.95 209.912 243.886 209.912 242.822 209.912C241.758 209.912 240.694 209.912 239.63 209.912C231.118 209.557 224.689 208.981 220.345 208.183C216 207.385 213.074 206.277 211.567 204.858C210.059 203.439 209.306 201.577 209.306 199.272C209.306 196.701 210.059 194.75 211.567 193.42C213.163 192.001 216.133 191.159 220.478 190.893C224.911 190.538 231.384 190.849 239.896 191.824ZM248.674 212.04C249.206 212.04 249.738 212.04 250.27 212.04C250.802 212.04 251.334 212.04 251.866 212.04C253.107 212.04 254.57 212.882 256.255 214.567C257.939 216.163 258.782 218.335 258.782 221.084C258.782 223.744 258.028 225.828 256.521 227.335C255.102 228.842 253.772 229.596 252.531 229.596C251.733 229.596 251.068 229.596 250.536 229.596C250.092 229.596 249.427 229.596 248.541 229.596C246.413 229.596 244.817 228.842 243.753 227.335C242.777 225.739 242.29 223.478 242.29 220.552C242.29 217.449 242.866 215.276 244.019 214.035C245.171 212.705 246.723 212.04 248.674 212.04ZM254.526 229.33C255.767 229.153 256.787 229.02 257.585 228.931C258.471 228.842 259.314 228.798 260.112 228.798C266.939 228.266 271.993 228.266 275.274 228.798C278.554 229.33 280.682 230.305 281.658 231.724C282.633 233.143 283.121 234.916 283.121 237.044C283.121 239.438 282.633 241.433 281.658 243.029C280.771 244.625 278.687 245.778 275.407 246.487C272.215 247.196 267.294 247.418 260.644 247.152C259.58 247.152 258.427 247.152 257.186 247.152C256.033 247.063 254.969 246.886 253.994 246.62C251.511 246.088 249.738 244.98 248.674 243.295C247.61 241.522 247.078 239.527 247.078 237.31C247.078 235.093 247.743 233.276 249.073 231.857C250.491 230.438 252.309 229.596 254.526 229.33ZM134.959 313.12C139.392 313.12 144.003 313.209 148.791 313.386C153.579 313.475 158.5 313.652 163.554 313.918C167.544 314.095 170.691 314.982 172.997 316.578C175.391 318.174 176.588 320.657 176.588 324.026C176.588 327.839 175.346 330.499 172.864 332.006C170.47 333.513 166.923 334.134 162.224 333.868C156.815 333.602 151.495 333.292 146.264 332.937C141.032 332.494 136.466 332.095 132.565 331.74C127.688 331.208 124.629 330.1 123.388 328.415C122.146 326.73 121.526 324.647 121.526 322.164C121.526 319.238 122.412 317.021 124.186 315.514C125.959 313.918 129.55 313.12 134.959 313.12ZM162.756 331.74C160.894 331.74 159.253 331.031 157.835 329.612C156.505 328.105 155.84 326.154 155.84 323.76C155.84 321.366 156.593 319.504 158.101 318.174C159.608 316.755 161.869 316.046 164.884 316.046C166.48 316.046 167.987 316.711 169.406 318.041C170.824 319.282 171.534 321.1 171.534 323.494C171.534 325.977 170.78 327.972 169.273 329.479C167.854 330.986 165.682 331.74 162.756 331.74ZM177.918 260.186C181.642 260.186 184.479 258.945 186.43 256.462C188.38 253.979 189.356 250.699 189.356 246.62C189.356 243.694 188.203 241.078 185.898 238.773C183.681 236.379 180.489 235.182 176.322 235.182C172.775 235.182 169.893 236.423 167.677 238.906C165.46 241.3 164.352 244.758 164.352 249.28C164.352 252.561 165.46 255.221 167.677 257.26C169.982 259.211 173.396 260.186 177.918 260.186ZM346.923 355.148C345.771 355.148 344.662 354.926 343.598 354.483C342.534 354.04 341.514 353.375 340.539 352.488C339.83 351.779 339.209 350.892 338.677 349.828C338.145 348.764 337.658 347.301 337.214 345.439C336.859 343.488 336.549 340.828 336.283 337.459C336.017 334.09 335.751 329.701 335.485 324.292C335.397 322.075 335.308 319.947 335.219 317.908C335.13 315.869 335.042 313.874 334.953 311.923C334.864 310.238 334.776 308.598 334.687 307.002C334.687 305.317 334.643 303.677 334.554 302.081C334.466 299.776 334.377 297.559 334.288 295.431C334.288 293.303 334.199 291.219 334.022 289.18C334.022 288.382 333.978 287.584 333.889 286.786C333.889 285.988 333.889 285.19 333.889 284.392C333.889 283.505 333.845 282.707 333.756 281.998C333.756 281.111 333.712 280.269 333.623 279.471C333.623 278.584 333.579 277.742 333.49 276.944C333.49 276.057 333.446 275.215 333.357 274.417C333.18 269.984 332.958 265.462 332.692 260.851C332.515 256.152 332.293 251.231 332.027 246.088C331.761 240.679 330.476 236.423 328.17 233.32C325.953 230.217 323.16 227.778 319.791 226.005C316.422 224.143 312.831 222.503 309.018 221.084C305.294 219.665 301.792 217.981 298.511 216.03C295.23 214.079 292.526 211.419 290.398 208.05C288.359 204.592 287.339 199.981 287.339 194.218C287.339 189.341 288.093 185.351 289.6 182.248C291.107 179.056 293.501 176.706 296.782 175.199C300.151 173.692 304.629 172.938 310.215 172.938C309.417 182.248 309.683 188.588 311.013 191.957C312.432 195.238 314.471 196.878 317.131 196.878C320.057 196.878 322.274 195.371 323.781 192.356C325.288 189.253 326.086 182.869 326.175 173.204C328.569 173.204 331.052 173.204 333.623 173.204C336.195 173.204 338.677 173.204 341.071 173.204C340.805 181.095 340.805 187.169 341.071 191.425C341.426 195.592 342.18 198.474 343.332 200.07C344.485 201.666 346.125 202.464 348.253 202.464C350.115 202.464 351.711 201.71 353.041 200.203C354.46 198.607 355.524 195.725 356.233 191.558C356.943 187.391 357.297 181.361 357.297 173.47C369.179 173.47 378.755 173.603 386.025 173.869C393.296 174.046 398.793 174.49 402.517 175.199C406.33 175.82 408.857 176.884 410.098 178.391C411.428 179.81 412.093 181.805 412.093 184.376C412.093 187.125 410.941 189.208 408.635 190.627C406.419 191.957 403.493 192.977 399.857 193.686C396.311 194.307 392.498 194.927 388.419 195.548C384.429 196.08 380.572 196.922 376.848 198.075C373.213 199.139 370.154 200.824 367.671 203.129C365.277 205.434 363.947 208.715 363.681 212.971C362.085 236.645 360.844 256.551 359.957 272.688C359.071 288.737 358.317 301.859 357.696 312.056C357.164 322.164 356.677 330.011 356.233 335.597C355.79 341.183 355.258 345.262 354.637 347.833C354.017 350.316 353.219 352.045 352.243 353.02C351.711 353.641 350.913 354.173 349.849 354.616C348.874 354.971 347.898 355.148 346.923 355.148ZM386.823 238.374C383.011 238.374 379.597 237.088 376.582 234.517C373.656 231.946 372.193 228.266 372.193 223.478C372.193 218.513 373.523 214.523 376.183 211.508C378.843 208.493 383.011 206.986 388.685 206.986C393.119 206.986 396.71 208.449 399.458 211.375C402.207 214.212 403.581 217.626 403.581 221.616C403.581 227.468 402.207 231.724 399.458 234.384C396.798 237.044 392.587 238.374 386.823 238.374ZM351.711 325.09L350.913 305.938C361.465 305.495 369.578 305.317 375.252 305.406C380.927 305.495 384.828 306.16 386.956 307.401C389.173 308.642 390.281 310.726 390.281 313.652C390.281 317.199 389.217 319.726 387.089 321.233C385.05 322.652 381.237 323.583 375.651 324.026C370.154 324.381 362.174 324.735 351.711 325.09ZM341.071 252.738L340.805 272.954C329.367 272.865 320.545 272.644 314.338 272.289C308.131 271.934 303.787 271.003 301.304 269.496C298.91 267.9 297.713 265.329 297.713 261.782C297.713 258.147 299.087 255.664 301.836 254.334C304.673 252.915 309.284 252.206 315.668 252.206C322.052 252.117 330.52 252.295 341.071 252.738Z" fill="white"/>
</svg>
