<svg width="512" height="512" viewBox="0 0 512 512" fill="none" xmlns="http://www.w3.org/2000/svg">
<rect width="512" height="512" fill="url(#paint0_linear_9_8)"/>
<path d="M194.408 336.76C185.754 336.76 178.861 333.68 173.728 327.52C168.741 321.213 166.248 314.027 166.248 305.96C166.248 297.893 168.961 290.707 174.388 284.4C179.961 277.947 186.561 274.72 194.188 274.72C197.414 274.72 200.054 275.527 202.108 277.14C204.308 278.607 205.408 280.807 205.408 283.74C205.408 289.167 201.888 291.88 194.848 291.88C191.621 291.88 188.834 293.273 186.488 296.06C184.141 298.7 182.968 302.073 182.968 306.18C182.968 310.14 184.068 313.44 186.268 316.08C188.468 318.573 191.548 319.82 195.508 319.82C209.148 319.82 215.968 298.7 215.968 256.46C215.968 244.873 214.794 229.693 212.448 210.92C210.101 192.147 208.928 181.22 208.928 178.14C208.928 174.913 209.954 172.347 212.008 170.44C214.061 168.533 216.481 167.58 219.268 167.58C223.374 167.58 226.674 170.147 229.168 175.28C237.088 190.68 248.381 211.287 263.048 237.1C277.714 262.913 290.401 284.327 301.108 301.34C300.521 301.34 299.788 291.147 298.908 270.76C298.174 250.227 297.808 236.733 297.808 230.28C297.808 214 299.421 200.14 302.648 188.7C304.554 182.1 307.634 176.967 311.888 173.3C316.288 169.487 321.274 167.58 326.848 167.58C332.568 167.58 337.408 169.12 341.368 172.2C345.328 175.133 347.308 178.58 347.308 182.54C347.308 186.5 345.621 188.48 342.248 188.48C341.221 188.48 339.094 187.82 335.868 186.5C332.641 185.18 329.781 184.52 327.288 184.52C318.048 184.52 313.428 205.713 313.428 248.1C313.428 258.073 314.234 273.327 315.848 293.86C317.461 314.393 318.268 325.833 318.268 328.18C318.268 330.527 317.241 332.653 315.188 334.56C313.281 336.467 311.008 337.42 308.368 337.42C304.408 337.42 300.961 334.853 298.028 329.72C290.694 316.667 282.334 302.073 272.948 285.94L245.008 236C236.941 221.04 231.368 211.213 228.288 206.52C230.341 225.88 231.368 244.287 231.368 261.74C231.368 311.753 219.048 336.76 194.408 336.76Z" fill="white"/>
<defs>
<linearGradient id="paint0_linear_9_8" x1="235.5" y1="374" x2="381.5" y2="289" gradientUnits="userSpaceOnUse">
<stop offset="0.5" stop-color="#02795C"/>
<stop offset="0.5" stop-color="#32A47B"/>
</linearGradient>
</defs>
</svg>
