<svg width="512" height="512" viewBox="0 0 512 512" fill="none" xmlns="http://www.w3.org/2000/svg">
<rect width="512" height="512" rx="128" fill="url(#paint0_linear_9_75)"/>
<path d="M177.61 358.24C166.597 358.24 157.823 354.32 151.29 346.48C144.943 338.453 141.77 329.307 141.77 319.04C141.77 308.773 145.223 299.627 152.13 291.6C159.223 283.387 167.623 279.28 177.33 279.28C181.437 279.28 184.797 280.307 187.41 282.36C190.21 284.227 191.61 287.027 191.61 290.76C191.61 297.667 187.13 301.12 178.17 301.12C174.063 301.12 170.517 302.893 167.53 306.44C164.543 309.8 163.05 314.093 163.05 319.32C163.05 324.36 164.45 328.56 167.25 331.92C170.05 335.093 173.97 336.68 179.01 336.68C196.37 336.68 205.05 309.8 205.05 256.04C205.05 241.293 203.557 221.973 200.57 198.08C197.583 174.187 196.09 160.28 196.09 156.36C196.09 152.253 197.397 148.987 200.01 146.56C202.623 144.133 205.703 142.92 209.25 142.92C214.477 142.92 218.677 146.187 221.85 152.72C231.93 172.32 246.303 198.547 264.97 231.4C283.637 264.253 299.783 291.507 313.41 313.16C312.663 313.16 311.73 300.187 310.61 274.24C309.677 248.107 309.21 230.933 309.21 222.72C309.21 202 311.263 184.36 315.37 169.8C317.797 161.4 321.717 154.867 327.13 150.2C332.73 145.347 339.077 142.92 346.17 142.92C353.45 142.92 359.61 144.88 364.65 148.8C369.69 152.533 372.21 156.92 372.21 161.96C372.21 167 370.063 169.52 365.77 169.52C364.463 169.52 361.757 168.68 357.65 167C353.543 165.32 349.903 164.48 346.73 164.48C334.97 164.48 329.09 191.453 329.09 245.4C329.09 258.093 330.117 277.507 332.17 303.64C334.223 329.773 335.25 344.333 335.25 347.32C335.25 350.307 333.943 353.013 331.33 355.44C328.903 357.867 326.01 359.08 322.65 359.08C317.61 359.08 313.223 355.813 309.49 349.28C300.157 332.667 289.517 314.093 277.57 293.56L242.01 230C231.743 210.96 224.65 198.453 220.73 192.48C223.343 217.12 224.65 240.547 224.65 262.76C224.65 326.413 208.97 358.24 177.61 358.24Z" fill="white"/>
<defs>
<linearGradient id="paint0_linear_9_75" x1="235.5" y1="374" x2="381.5" y2="289" gradientUnits="userSpaceOnUse">
<stop offset="0.5" stop-color="#02795C"/>
<stop offset="0.5" stop-color="#32A47B"/>
</linearGradient>
</defs>
</svg>
